# xmcd
#
# Track frame offsets:
#	150
#	16135
#	30417
#	42842
#	55094
#	75819
#	87133
#	100027
#	110877
#	127166
#	137578
#	151085
#	161085
#	175290
#	189722
#	206117
#	215019
#	228088
#
# Disc length: 3256 seconds
#
# Revision: 3
# Processed by: cddbd v1.5.2PL0 Copyright (c) Steve Scherf et al.
# Submitted via: audiograbber 1.83.01
#
DISCID=e50cb612
DTITLE=Billie Jo Spears - Misty Blue
DYEAR=1900
DGENRE=
TTITLE0=Blanket On The Ground
TTITLE1=Which Way You Goin Billy
TTITLE2=What Ive Got In Mind
TTITLE3=Misty Blue
TTITLE4=Just The Way You Are
TTITLE5=Tennessee Waltz
TTITLE6=57 Chevrolet
TTITLE7=Im So Lonesome I Could Cry
TTITLE8=I Fall To Pieces
TTITLE9=Im Gonna Be A Country Girl Again
TTITLE10=Fever
TTITLE11=I Stayed Long Enough
TTITLE12=Blue Bayou
TTITLE13=Crying Time
TTITLE14=Fire and Rain
TTITLE15=Youre My Man
TTITLE16=Dallas
TTITLE17=Queen Of The Silver Dollar
EXTD=
EXTT0=
EXTT1=
EXTT2=
EXTT3=
EXTT4=
EXTT5=
EXTT6=
EXTT7=
EXTT8=
EXTT9=
EXTT10=
EXTT11=
EXTT12=
EXTT13=
EXTT14=
EXTT15=
EXTT16=
EXTT17=
PLAYORDER=
